# xmcd
#
# Track frame offsets:
#	150
#	21892
#	41953
#	62990
#	86192
#	109532
#	130319
#	148946
#	171863
#	191990
#	213007
#	231711
#	254435
#	278935
#	302992
#	322769
#	339876
#
# Disc length: 4776 seconds
#
# Revision: 1
# Processed by: cddbd v1.5.2PL0 Copyright (c) Steve Scherf et al.
# Submitted via: audiograbber 1.83.01
#
DISCID=0a12a611
DTITLE=Russkij razmer - The Best
DYEAR=1999
DGENRE=Dance
TTITLE0=Angel Dnja
TTITLE1=Vesna
TTITLE2=Si-Si-Sol
TTITLE3=Ti Bi Mog
TTITLE4=Malosolnii Ogurec
TTITLE5=On Uge Daleko
TTITLE6=Esli
TTITLE7=Sinii Sinii Tiket
TTITLE8=Kto Ego Ubival
TTITLE9=Vse Vernetsja Nazad
TTITLE10=Begut Goda
TTITLE11=I Esli Ti Pojmesh
TTITLE12=UaU
TTITLE13=Kolibelnaja
TTITLE14=Leti
TTITLE15=V Poslednii Raz
TTITLE16=Ne Bilo Pechali
EXTD=
EXTT0=
EXTT1=
EXTT2=
EXTT3=
EXTT4=
EXTT5=
EXTT6=
EXTT7=
EXTT8=
EXTT9=
EXTT10=
EXTT11=
EXTT12=
EXTT13=
EXTT14=
EXTT15=
EXTT16=
PLAYORDER=
